REM DIRINDEX 1\2,1\3,1\4,1\5
REM DIRNAME cjc044,folder01,folder02,folder03,folder04
TITLE ""
FILE "1800_116.mp3" MP3
  TRACK 01 AUDIO
    TITLE "2:cjc044_3321"
    INDEX 01 00:00:00
  TRACK 02 AUDIO
    TITLE "0:"
    INDEX 01 00:01:03
  TRACK 03 AUDIO
    TITLE "3:cjc044_3322"
    INDEX 01 00:01:64
  TRACK 04 AUDIO
    TITLE "0:"
    INDEX 01 00:03:66
  TRACK 05 AUDIO
    TITLE "4:cjc044_3323"
    INDEX 01 00:04:42
  TRACK 06 AUDIO
    TITLE "0:"
    INDEX 01 00:05:59
  TRACK 07 AUDIO
    TITLE "5:cjc044_3324"
    INDEX 01 00:06:37
  TRACK 08 AUDIO
    TITLE "0:"
    INDEX 01 00:10:25
  TRACK 09 AUDIO
    TITLE "2:cjc044_3325"
    INDEX 01 00:12:12
  TRACK 10 AUDIO
    TITLE "0:"
    INDEX 01 00:13:14
  TRACK 11 AUDIO
    TITLE "3:cjc044_3326"
    INDEX 01 00:14:00
  TRACK 12 AUDIO
    TITLE "0:"
    INDEX 01 00:15:21
  TRACK 13 AUDIO
    TITLE "4:cjc044_3327"
    INDEX 01 00:16:08
  TRACK 14 AUDIO
    TITLE "0:"
    INDEX 01 00:17:10
  TRACK 15 AUDIO
    TITLE "5:cjc044_3328"
    INDEX 01 00:17:70
  TRACK 16 AUDIO
    TITLE "0:"
    INDEX 01 00:20:73
  TRACK 17 AUDIO
    TITLE "2:cjc044_3329"
    INDEX 01 00:22:54
  TRACK 18 AUDIO
    TITLE "0:"
    INDEX 01 00:23:57
  TRACK 19 AUDIO
    TITLE "3:cjc044_3330"
    INDEX 01 00:24:37
  TRACK 20 AUDIO
    TITLE "0:"
    INDEX 01 00:25:56
  TRACK 21 AUDIO
    TITLE "4:cjc044_3331"
    INDEX 01 00:26:36
  TRACK 22 AUDIO
    TITLE "0:"
    INDEX 01 00:27:36
  TRACK 23 AUDIO
    TITLE "5:cjc044_3332"
    INDEX 01 00:28:17
  TRACK 24 AUDIO
    TITLE "0:"
    INDEX 01 00:31:33
  TRACK 25 AUDIO
    TITLE "2:cjc044_3333"
    INDEX 01 00:33:17
  TRACK 26 AUDIO
    TITLE "0:"
    INDEX 01 00:34:26
  TRACK 27 AUDIO
    TITLE "3:cjc044_3334"
    INDEX 01 00:35:14
  TRACK 28 AUDIO
    TITLE "0:"
    INDEX 01 00:36:36
  TRACK 29 AUDIO
    TITLE "4:cjc044_3335"
    INDEX 01 00:37:18
  TRACK 30 AUDIO
    TITLE "0:"
    INDEX 01 00:38:31
  TRACK 31 AUDIO
    TITLE "5:cjc044_3336"
    INDEX 01 00:39:17
  TRACK 32 AUDIO
    TITLE "0:"
    INDEX 01 00:42:29
  TRACK 33 AUDIO
    TITLE "2:cjc044_3337"
    INDEX 01 00:44:18
  TRACK 34 AUDIO
    TITLE "0:"
    INDEX 01 00:45:35
  TRACK 35 AUDIO
    TITLE "3:cjc044_3338"
    INDEX 01 00:46:19
  TRACK 36 AUDIO
    TITLE "0:"
    INDEX 01 00:47:09
  TRACK 37 AUDIO
    TITLE "4:cjc044_3339"
    INDEX 01 00:47:74
  TRACK 38 AUDIO
    TITLE "0:"
    INDEX 01 00:49:14
  TRACK 39 AUDIO
    TITLE "5:cjc044_3340"
    INDEX 01 00:49:69
  TRACK 40 AUDIO
    TITLE "0:"
    INDEX 01 00:52:57
  TRACK 41 AUDIO
    TITLE "2:cjc044_3341"
    INDEX 01 00:54:38
  TRACK 42 AUDIO
    TITLE "0:"
    INDEX 01 00:55:38
  TRACK 43 AUDIO
    TITLE "3:cjc044_3342"
    INDEX 01 00:56:24
  TRACK 44 AUDIO
    TITLE "0:"
    INDEX 01 00:57:29
  TRACK 45 AUDIO
    TITLE "4:cjc044_3343"
    INDEX 01 00:58:11
  TRACK 46 AUDIO
    TITLE "0:"
    INDEX 01 00:59:14
  TRACK 47 AUDIO
    TITLE "5:cjc044_3344"
    INDEX 01 00:59:71
  TRACK 48 AUDIO
    TITLE "0:"
    INDEX 01 01:03:20
  TRACK 49 AUDIO
    TITLE "2:cjc044_3345"
    INDEX 01 01:05:07
  TRACK 50 AUDIO
    TITLE "0:"
    INDEX 01 01:06:18
  TRACK 51 AUDIO
    TITLE "3:cjc044_3346"
    INDEX 01 01:06:73
  TRACK 52 AUDIO
    TITLE "0:"
    INDEX 01 01:08:36
  TRACK 53 AUDIO
    TITLE "4:cjc044_3347"
    INDEX 01 01:09:18
  TRACK 54 AUDIO
    TITLE "0:"
    INDEX 01 01:10:30
  TRACK 55 AUDIO
    TITLE "5:cjc044_3348"
    INDEX 01 01:11:05
  TRACK 56 AUDIO
    TITLE "0:"
    INDEX 01 01:14:12
  TRACK 57 AUDIO
    TITLE "2:cjc044_3349"
    INDEX 01 01:15:72
  TRACK 58 AUDIO
    TITLE "0:"
    INDEX 01 01:17:12
  TRACK 59 AUDIO
    TITLE "3:cjc044_3350"
    INDEX 01 01:17:71
  TRACK 60 AUDIO
    TITLE "0:"
    INDEX 01 01:19:70
  TRACK 61 AUDIO
    TITLE "4:cjc044_3351"
    INDEX 01 01:20:49
  TRACK 62 AUDIO
    TITLE "0:"
    INDEX 01 01:21:63
  TRACK 63 AUDIO
    TITLE "5:cjc044_3352"
    INDEX 01 01:22:41
  TRACK 64 AUDIO
    TITLE "0:"
    INDEX 01 01:25:11
  TRACK 65 AUDIO
    TITLE "2:cjc044_3353"
    INDEX 01 01:26:72
  TRACK 66 AUDIO
    TITLE "0:"
    INDEX 01 01:28:02
  TRACK 67 AUDIO
    TITLE "3:cjc044_3354"
    INDEX 01 01:28:65
  TRACK 68 AUDIO
    TITLE "0:"
    INDEX 01 01:30:40
  TRACK 69 AUDIO
    TITLE "4:cjc044_3355"
    INDEX 01 01:31:20
  TRACK 70 AUDIO
    TITLE "0:"
    INDEX 01 01:32:25
  TRACK 71 AUDIO
    TITLE "5:cjc044_3356"
    INDEX 01 01:33:17
  TRACK 72 AUDIO
    TITLE "0:"
    INDEX 01 01:36:25
